# AST/ASF file generated using VICON BodyLanguage
# -----------------------------------------------
:version 1.10
:name VICON
:units
  mass 1.0
  length 0.45
  angle deg
:documentation
   .ast/.asf automatically generated from VICON data using
   VICON BodyBuilder and BodyLanguage model FoxedUp or BRILLIANT.MOD
:root
   order TX TY TZ RX RY RZ
   axis XYZ
   position 0 0 0  
   orientation 0 0 0 
:bonedata
  begin
     id 1 
     name lhipjoint
     direction 0.522423 -0.726805 0.445902 
     length 2.25074 
     axis 0 0 0  XYZ
  end
  begin
     id 2 
     name lfemur
     direction 0.34202 -0.939693 0  
     length 6.54609  
     axis 0 0 20  XYZ
    dof rx ry rz
    limits (-160.0 20.0)
           (-70.0 70.0)
           (-60.0 70.0)
  end
  begin
     id 3 
     name ltibia
     direction 0.34202 -0.939693 0   
     length 7.7528   
     axis 0 0 20   XYZ
    dof rx
    limits (-10.0 170.0)
  end
  begin
     id 4 
     name lfoot
     direction 0.143696 -0.394801 0.90746   
     length 1.73269   
     axis -90 7.62852e-016 20   XYZ
    dof rx rz
    limits (-45.0 90.0)
           (-70.0 20.0)
  end
  begin
     id 5 
     name ltoes
     direction 1.53633e-011 -4.21912e-011 1   
     length 0.858383   
     axis -90 7.62852e-016 20   XYZ
    dof rx
    limits (-90.0 20.0)
  end
  begin
     id 6 
     name rhipjoint
     direction -0.515943 -0.73016 0.447961   
     length 2.2404  
     axis 0 0 0  XYZ 
  end
  begin
     id 7 
     name rfemur
     direction -0.34202 -0.939693 0   
     length 6.84377   
     axis 0 0 -20   XYZ
    dof rx ry rz
    limits (-160.0 20.0)
           (-70.0 70.0)
           (-70.0 60.0)
  end
  begin
     id 8 
     name rtibia
     direction -0.34202 -0.939693 0   
     length 7.57596   
     axis 0 0 -20   XYZ
    dof rx
    limits (-10.0 170.0)
 end
 begin
     id 9 
     name rfoot
     direction -0.0999372 -0.274575 0.956358   
     length 1.78783  
     axis -90 -7.62852e-016 -20   XYZ
    dof rx rz
    limits (-45.0 90.0)
           (-20.0 70.0)
  end
  begin
     id 10 
     name rtoes
     direction -1.53535e-011 -4.21895e-011 1   
     length 0.898614   
     axis -90 -7.62852e-016 -20   XYZ
    dof rx
    limits (-90.0 20.0)
  end
  begin
     id 11 
     name lowerback
     direction -0.011775 0.996164 -0.0867116   
     length 1.91499   
     axis 0 0 0   XYZ
    dof rx ry rz
    limits (-20.0 45.0)
           (-30.0 30.0)
           (-30.0 30.0)
  end
  begin
     id 12 
     name upperback
     direction -0.00189771 0.999673 -0.0254833   
     length 1.92213   
     axis 0 0 0   XYZ
    dof rx ry rz
    limits (-20.0 45.0)
           (-30.0 30.0)
           (-30.0 30.0)
  end
  begin
     id 13 
     name thorax
     direction 0.00335995 0.999878 0.0152401   
     length 1.93138   
     axis 0 0 0   XYZ
    dof rx ry rz
    limits (-20.0 45.0)
           (-30.0 30.0)
           (-30.0 30.0)
  end
  begin
     id 14 
     name lowerneck
     direction 0.00233191 0.998509 0.0545404   
     length 1.59408   
     axis 0 0 0   XYZ
    dof rx ry rz
    limits (-20.0 45.0)
           (-30.0 30.0)
           (-30.0 30.0)
  end
  begin
     id 15 
     name upperneck
     direction 0.07881 0.9956 -0.0506934   
     length 1.59344   
     axis 0 0 0   XYZ
    dof rx ry rz
    limits (-20.0 45.0)
           (-30.0 30.0)
           (-30.0 30.0)
  end
  begin
     id 16
     name head
     direction 0.0261681 0.999378 -0.0236299  
     length 1.60935  
     axis 0 0 0   XYZ
    dof rx ry rz
    limits (-20.0 45.0)
           (-30.0 30.0)
           (-30.0 30.0)
  end
  begin
     id 17 
     name lclavicle
     direction 0.96643 0.252035 0.0499195  
     length 3.82153  
     axis 0 0 0   XYZ
    dof ry rz
    limits (-20.0 10.0)
           (0.0 20.0)
  end
  begin
     id 18 
     name lhumerus
     direction 1 -4.48967e-011 -2.01614e-018   
     length 4.87796   
     axis 180 -30 -90   XYZ
    dof rx ry rz
    limits (-60.0 90.0)
           (-90.0 90.0)
           (-90.0 90.0)
  end
  begin
     id 19
     name lradius
     direction 1 -4.48958e-011 3.1409e-027   
     length 3.23169   
     axis 180 -30 -90   XYZ
    dof rx
    limits (-10.0 170.0)
  end
  begin
     id 20
     name lwrist
     direction 1 -4.48924e-011 1.0365e-027   
     length 1.61584   
     axis -2.56395e-016 90 90   XYZ
    dof ry
    limits (-180.0 0.0)
 end
  begin
     id 21 
     name lhand
     direction 1 -4.49055e-011 2.09488e-027   
     length 0.731324   
     axis -1.32723e-015 90 90   XYZ
    dof rx rz
    limits (-90.0 90.0)
           (-45.0 45.0)
  end
  begin
     id 22 
     name lfingers
     direction 1 -4.48935e-011 4.14981e-027   
     length 0.589612   
     axis -2.6545e-015 90 90   XYZ
    dof rx
    limits (0.0 90.0)
  end
  begin
     id 23
     name lthumb
     direction 0.707107 -6.35097e-011 0.707107   
     length 0.846569   
     axis -90 45 5.05613e-014   XYZ
    dof rx rz
    limits (-45.0 45.0)
           (-45.0 45.0)
  end
  begin
     id 24 
     name rclavicle
     direction -0.979337 0.201016 0.0221522   
     length 3.73827  
     axis 0 0 0   XYZ 
    dof ry rz
    limits (-10.0 20.0)
           (-20.0 0.0)
  end
  begin
     id 25 
     name rhumerus
     direction -1 -4.48971e-011 1.65907e-027  
     length 4.9143   
     axis 180 30 90   XYZ
    dof rx ry rz
    limits (-90.0 60.0)
           (-90.0 90.0)
           (-90.0 90.0)
  end
  begin
     id 26 
     name rradius
     direction -1 -4.4894e-011 2.17871e-028   
     length 3.29093   
     axis 180 30 90   XYZ
    dof rx
    limits (-10.0 170.0)
  end
  begin
     id 27 
     name rwrist
     direction -1 -4.48971e-011 1.04038e-027   
     length 1.64546   
     axis -2.56395e-016 -90 -90   XYZ
    dof ry
    limits (-180.0 0.0)
  end
  begin
     id 28
     name rhand
     direction -1 -4.49017e-011 2.08843e-027   
     length 0.54512   
     axis -1.32723e-015 -90 -90   XYZ
    dof rx rz
    limits (-90.0 90.0)
           (-45.0 45.0)
  end
  begin
     id 29
     name rfingers
     direction -1 -4.48918e-011 4.1439e-027   
     length 0.43949   
     axis -2.6545e-015 -90 -90   XYZ
    dof rx
    limits (0.0 90.0)
  end
  begin
     id 30
     name rthumb
     direction -0.707107 -6.35065e-011 0.707107   
     length 0.631022   
     axis -90 -45 -5.05613e-014   XYZ
    dof rx rz
    limits (-45.0 45.0)
           (-45.0 45.0)
  end
:hierarchy
  begin
    root lhipjoint rhipjoint lowerback
    lhipjoint lfemur
    lfemur ltibia
    ltibia lfoot
    lfoot ltoes
    rhipjoint rfemur
    rfemur rtibia
    rtibia rfoot
    rfoot rtoes
    lowerback upperback
    upperback thorax
    thorax lowerneck lclavicle rclavicle
    lowerneck upperneck
    upperneck head
    lclavicle lhumerus
    lhumerus lradius
    lradius lwrist
    lwrist lhand lthumb
    lhand lfingers
    rclavicle rhumerus
    rhumerus rradius
    rradius rwrist
    rwrist rhand rthumb
    rhand rfingers
  end

#!OML:ASF H:\BreakDance\Project 1\Capture day 1\Session 1\Male.ASF
:FULLY-SPECIFIED
:DEGREES
95
root 1.60116 14.2601 -1.17843 12.6657 -88.0591 -15.5903
lowerback 9.98904 0.397762 -1.20766
upperback 4.20669 0.26461 -0.460782
thorax -1.23565 0.0629189 0.175811
lowerneck -8.10342 -1.66946 -3.32452
upperneck 5.49314 -2.64434 9.47942
head 3.13297 -1.02232 3.28405
rclavicle 2.83268e-015 -3.97569e-015
rhumerus 18.5238 4.58097 -77.2427
rradius 89.4697
rwrist 6.41892
rhand -1.52237 -52.0683
rfingers 7.12502
rthumb 24.1314 -80.5705
lclavicle 2.83268e-015 -3.97569e-015
lhumerus 25.5145 -7.58111 78.7586
lradius 81.7397
lwrist -28.2069
lhand 14.18 -15.7889
lfingers 7.12502
lthumb 39.0792 9.70835
rfemur -35.9946 -20.9416 4.37682
rtibia 69.5431
rfoot -26.6936 0.788105
rtoes -19.433
lfemur -39.5943 20.6636 -6.99829
ltibia 72.5624
lfoot -30.2525 -4.04531
ltoes -16.6871
96
root 1.60502 14.2626 -1.17487 9.78214 -88.0224 -12.6835
lowerback 9.93831 0.369819 -1.27904
upperback 4.22579 0.22171 -0.465568
thorax -1.18783 0.0404174 0.215817
lowerneck -8.00275 -1.63932 -3.34767
upperneck 5.39293 -2.59311 9.46746
head 3.08297 -1.00256 3.28717
rclavicle 4.47266e-016 5.96354e-015
rhumerus 18.5668 4.61886 -77.2049
rradius 89.4402
rwrist 6.33966
rhand -1.6405 -51.9527
rfingers 7.12502
rthumb 24.0182 -80.47
lclavicle 4.47266e-016 5.96354e-015
lhumerus 25.4863 -7.54065 78.7595
lradius 81.7126
lwrist -28.1739
lhand 14.1118 -15.7024
lfingers 7.12502
lthumb 39.015 9.81336
rfemur -36.0173 -21.056 4.26392
rtibia 69.51
rfoot -26.6532 0.765793
rtoes -19.6428
lfemur -39.6496 20.5767 -7.15011
ltibia 72.5484
lfoot -30.2112 -4.07999
ltoes -16.3784
97
root 1.60913 14.2627 -1.17351 9.78782 -87.9702 -12.6876
lowerback 9.96842 0.370559 -1.23319
upperback 4.19348 0.22695 -0.477927
thorax -1.23763 0.0444488 0.176583
lowerneck -7.80377 -1.65068 -3.35373
upperneck 5.27808 -2.60558 9.51502
head 3.01734 -1.01504 3.30267
rclavicle 3.03147e-015 -7.95139e-016
rhumerus 18.435 4.53928 -77.2443
rradius 89.4503
rwrist 6.33896
rhand -1.78504 -51.9506
rfingers 7.12502
rthumb 23.8796 -80.4861
lclavicle 3.03147e-015 -7.95139e-016
lhumerus 25.4244 -7.61873 78.7748
lradius 81.6728
lwrist -28.1349
lhand 14.072 -15.7226
lfingers 7.12502
lthumb 38.9774 9.8039
rfemur -36.0156 -21.1042 4.26278
rtibia 69.4834
rfoot -26.6121 0.781222
rtoes -19.5102
lfemur -39.6986 20.5223 -7.16743
ltibia 72.5657
lfoot -30.2825 -4.10619
ltoes -16.695
98
root 1.61313 14.2586 -1.17171 10.2041 -87.9903 -13.1005
lowerback 10.0316 0.402548 -1.17938
upperback 4.14581 0.273645 -0.498779
thorax -1.32184 0.0695275 0.119408
lowerneck -7.70605 -1.7191 -3.40566
upperneck 5.27201 -2.70275 9.62746
head 3.00828 -1.06317 3.34102
rclavicle -2.5842e-015 -3.97569e-016
rhumerus 18.3321 4.43604 -77.2586
rradius 89.4306
rwrist 6.37033
rhand -1.83315 -52.0035
rfingers 7.12502
rthumb 23.8334 -80.545
lclavicle -2.5842e-015 -3.97569e-016
lhumerus 25.3505 -7.72513 78.7807
lradius 81.6238
lwrist -28.0676
lhand 14.0899 -15.8262
lfingers 7.12502
lthumb 38.9943 9.69551
rfemur -36.0223 -21.0972 4.25973
rtibia 69.4812
rfoot -26.6119 0.93312
rtoes -18.9416
lfemur -39.7486 20.5309 -7.17196
ltibia 72.6032
lfoot -30.3554 -4.00966
ltoes -17.0207
99
root 1.61581 14.2571 -1.16963 11.2768 -88.0572 -14.1654
lowerback 10.0416 0.435589 -1.14125
upperback 4.13961 0.321142 -0.486759
thorax -1.33407 0.0936061 0.105127
lowerneck -7.73171 -1.75548 -3.41432
upperneck 5.31055 -2.75319 9.62523
head 3.02751 -1.08679 3.33908
rclavicle 4.02539e-015 -3.97569e-016
rhumerus 18.3512 4.39375 -77.2076
rradius 89.4168
rwrist 6.37213
rhand -1.81679 -52.0867
rfingers 7.12502
rthumb 23.8491 -80.6261
lclavicle 4.02539e-015 -3.97569e-016
lhumerus 25.3196 -7.7424 78.8169
lradius 81.582
lwrist -28.1137
lhand 14.0986 -15.9715
lfingers 7.12502
lthumb 39.0025 9.54783
rfemur -36.0753 -21.055 4.30315
rtibia 69.4937
rfoot -26.6328 0.918075
rtoes -18.9114
lfemur -39.7709 20.5897 -7.15307
ltibia 72.6246
lfoot -30.4129 -3.8287
ltoes -17.3691
100
root 1.61802 14.2586 -1.16769 11.7606 -88.0847 -14.6557
lowerback 10.0021 0.430248 -1.16935
upperback 4.17694 0.312641 -0.430453
thorax -1.27418 0.0878672 0.180269
lowerneck -7.74852 -1.74669 -3.41732
upperneck 5.30007 -2.72872 9.50703
head 3.02359 -1.07817 3.30458
rclavicle 1.44119e-015 -5.96354e-015
rhumerus 18.4528 4.45255 -77.1105
rradius 89.4007
rwrist 6.32575
rhand -1.83832 -52.1989
rfingers 7.12502
rthumb 23.8285 -80.7411
lclavicle 1.44119e-015 -5.96354e-015
lhumerus 25.3178 -7.63461 78.8889
lradius 81.5693
lwrist -28.2154
lhand 14.0934 -15.9932
lfingers 7.12502
lthumb 38.9976 9.5275
rfemur -36.0981 -21.0216 4.31756
rtibia 69.4954
rfoot -26.6241 0.90162
rtoes -18.8653
lfemur -39.7606 20.6115 -7.14785
ltibia 72.6253
lfoot -30.4672 -3.74872
ltoes -17.8733
101
root 1.62233 14.2592 -1.1655 11.4127 -88.1218 -14.2901
lowerback 9.94584 0.427912 -1.19558
upperback 4.20479 0.308252 -0.404556
thorax -1.21474 0.0845974 0.222525
lowerneck -7.69621 -1.75079 -3.56487
upperneck 5.22622 -2.71844 9.58061
head 2.99511 -1.07607 3.35217
rclavicle 9.93923e-015 1.59028e-015
rhumerus 18.5025 4.46857 -77.0747
rradius 89.4332
rwrist 6.38694
rhand -1.5738 -52.1753
rfingers 7.12502
rthumb 24.0821 -80.6841
lclavicle 9.93923e-015 1.59028e-015
lhumerus 25.3482 -7.57582 78.899
lradius 81.5709
lwrist -28.2198
lhand 14.1543 -15.8617
lfingers 7.12502
lthumb 39.055 9.6425
rfemur -36.1427 -20.977 4.2956
rtibia 69.4928
rfoot -26.6012 0.964632
rtoes -18.6483
lfemur -39.7875 20.6361 -7.18659
ltibia 72.6228
lfoot -30.5186 -3.77033
ltoes -18.1651
102
root 1.62561 14.2587 -1.16506 11.4303 -88.1611 -14.3048
lowerback 9.94143 0.439972 -1.17284
upperback 4.19722 0.326098 -0.426165
thorax -1.22015 0.0940369 0.185507
lowerneck -7.64785 -1.75538 -3.66573
upperneck 5.18479 -2.72515 9.74132
head 2.97904 -1.07821 3.41788
rclavicle 8.44835e-016 7.95139e-016
rhumerus 18.4501 4.41128 -77.1375
rradius 89.5139
rwrist 6.58627
rhand -1.04095 -52.0408
rfingers 7.12502
rthumb 24.593 -80.481
lclavicle 8.44835e-016 7.95139e-016
lhumerus 25.3414 -7.62902 78.8289
lradius 81.5734
lwrist -28.1803
lhand 14.1617 -15.7868
lfingers 7.12502
lthumb 39.062 9.71541
rfemur -36.161 -20.9442 4.30877
rtibia 69.492
rfoot -26.6268 0.850093
rtoes -19.1464
lfemur -39.7867 20.6891 -7.19345
ltibia 72.6116
lfoot -30.5132 -3.84375
ltoes -17.8515
103
root 1.62816 14.2589 -1.16538 13.4235 -88.1857 -16.3197
lowerback 9.935 0.449815 -1.09634
upperback 4.22199 0.34526 -0.433614
thorax -1.19073 0.103751 0.132841
lowerneck -7.70022 -1.75247 -3.642
upperneck 5.17706 -2.7278 9.79532
head 2.98622 -1.07633 3.4301
rclavicle 6.4605e-016 8.74653e-015
rhumerus 18.4502 4.38038 -77.1521
rradius 89.5383
rwrist 6.60358
rhand -1.05646 -52.0948
rfingers 7.12502
rthumb 24.5781 -80.5371
lclavicle 6.4605e-016 8.74653e-015
lhumerus 25.3695 -7.65227 78.7558
lradius 81.5628
lwrist -28.147
lhand 14.1384 -15.8406
lfingers 7.12502
lthumb 39.04 9.66796
rfemur -36.1318 -20.929 4.38993
rtibia 69.4803
rfoot -26.6506 0.77919
rtoes -19.4543
lfemur -39.7799 20.7571 -7.12281
ltibia 72.5995
lfoot -30.4552 -3.90812
ltoes -17.6828
104
root 1.63189 14.2606 -1.16575 14.0032 -88.2258 -16.9191
lowerback 9.92639 0.480102 -1.07662
upperback 4.26317 0.385938 -0.433753
thorax -1.14365 0.123174 0.117397
lowerneck -7.80755 -1.76081 -3.67513
upperneck 5.21677 -2.74218 9.85405
head 3.01824 -1.07838 3.4524
rclavicle 2.48481e-016 -3.97569e-015
rhumerus 18.4722 4.34438 -77.085
rradius 89.4984
rwrist 6.44211
rhand -1.69338 -52.2545
rfingers 7.12502
rthumb 23.9675 -80.7784
lclavicle 2.48481e-016 -3.97569e-015
lhumerus 25.4693 -7.66746 78.7583
lradius 81.5354
lwrist -28.1457
lhand 14.1962 -15.87
lfingers 7.12502
lthumb 39.0945 9.62285
rfemur -36.1367 -20.8931 4.411
rtibia 69.4681
rfoot -26.6185 0.838649
rtoes -19.1274
lfemur -39.7711 20.7876 -7.10553
ltibia 72.5837
lfoot -30.4422 -3.89345
ltoes -17.8116
